<svg id="visual" viewBox="0 0 900 600" width="900" height="600" xmlns="http://www.w3.org/2000/svg" xmlns:xlink="http://www.w3.org/1999/xlink" version="1.1"><g stroke-width="1" stroke-linejoin="bevel"><path d="M451 312.9L486 323L483 317.9Z" fill="#00101a" stroke="#00101a"></path><path d="M486 323L501 325.9L483 317.9Z" fill="#012a46" stroke="#012a46"></path><path d="M451 312.9L433 381.9L486 323Z" fill="#000f19" stroke="#000f19"></path><path d="M486 323L480 391.7L501 325.9Z" fill="#012a46" stroke="#012a46"></path><path d="M501 325.9L505 287L483 317.9Z" fill="#00111f" stroke="#00111f"></path><path d="M483 317.9L505 287L451 312.9Z" fill="#022239" stroke="#022239"></path><path d="M433 381.9L480 391.7L486 323Z" fill="#022239" stroke="#022239"></path><path d="M446 258.1L416 292L451 312.9Z" fill="#012a46" stroke="#012a46"></path><path d="M451 312.9L387 334L433 381.9Z" fill="#00111d" stroke="#00111d"></path><path d="M459 415.7L484 400.6L480 391.7Z" fill="#00111d" stroke="#00111d"></path><path d="M480 391.7L555 368.7L501 325.9Z" fill="#003254" stroke="#003254"></path><path d="M505 287L446 258.1L451 312.9Z" fill="#001220" stroke="#001220"></path><path d="M384 393.7L422 396.6L433 381.9Z" fill="#000f19" stroke="#000f19"></path><path d="M433 381.9L459 415.7L480 391.7Z" fill="#003254" stroke="#003254"></path><path d="M416 292L387 334L451 312.9Z" fill="#000f19" stroke="#000f19"></path><path d="M422 396.6L459 415.7L433 381.9Z" fill="#012a46" stroke="#012a46"></path><path d="M446 258.1L397 274.1L416 292Z" fill="#00111f" stroke="#00111f"></path><path d="M416 292L397 274.1L387 334Z" fill="#031a2c" stroke="#031a2c"></path><path d="M501 325.9L527 269L505 287Z" fill="#00111d" stroke="#00111d"></path><path d="M505 287L504 232.1L446 258.1Z" fill="#022239" stroke="#022239"></path><path d="M590 323.9L527 269L501 325.9Z" fill="#031a2c" stroke="#031a2c"></path><path d="M555 369.9L480 391.7L484 400.6Z" fill="#031a2c" stroke="#031a2c"></path><path d="M555 369.9L555 368.7L480 391.7Z" fill="#012a46" stroke="#012a46"></path><path d="M509 427.6L555 369.9L484 400.6Z" fill="#001220" stroke="#001220"></path><path d="M387 334L384 393.7L433 381.9Z" fill="#003a62" stroke="#003a62"></path><path d="M443 481.3L470 482.4L459 415.7Z" fill="#012a46" stroke="#012a46"></path><path d="M354 335.9L362 347.9L387 334Z" fill="#000f19" stroke="#000f19"></path><path d="M387 334L362 347.9L384 393.7Z" fill="#000f19" stroke="#000f19"></path><path d="M459 415.7L509 427.6L484 400.6Z" fill="#031a2c" stroke="#031a2c"></path><path d="M527 269L504 232.1L505 287Z" fill="#022239" stroke="#022239"></path><path d="M446 258.1L427 227.3L397 274.1Z" fill="#00101c" stroke="#00101c"></path><path d="M504 232.1L482 223.3L446 258.1Z" fill="#000f19" stroke="#000f19"></path><path d="M397 274.1L354 335.9L387 334Z" fill="#00101a" stroke="#00101a"></path><path d="M323 390.7L346 427.6L384 393.7Z" fill="#00111d" stroke="#00111d"></path><path d="M459 207.4L427 227.3L446 258.1Z" fill="#031a2c" stroke="#031a2c"></path><path d="M397 274.1L340 243.1L354 335.9Z" fill="#022239" stroke="#022239"></path><path d="M560 251.3L545 253.1L527 269Z" fill="#012a46" stroke="#012a46"></path><path d="M527 269L545 253.1L504 232.1Z" fill="#022239" stroke="#022239"></path><path d="M504 232.1L506 221.3L482 223.3Z" fill="#00101c" stroke="#00101c"></path><path d="M482 223.3L459 207.4L446 258.1Z" fill="#00111f" stroke="#00111f"></path><path d="M545 253.1L506 221.3L504 232.1Z" fill="#031a2c" stroke="#031a2c"></path><path d="M555 369.9L565 396.6L555 368.7Z" fill="#001220" stroke="#001220"></path><path d="M590 323.9L560 251.3L527 269Z" fill="#00111d" stroke="#00111d"></path><path d="M509 427.6L565 396.6L555 369.9Z" fill="#031a2c" stroke="#031a2c"></path><path d="M465 158.4L459 207.4L482 223.3Z" fill="#022239" stroke="#022239"></path><path d="M590 323.9L501 325.9L555 368.7Z" fill="#031a2c" stroke="#031a2c"></path><path d="M545 253.1L541 204.4L506 221.3Z" fill="#00111f" stroke="#00111f"></path><path d="M565 396.6L590 323.9L555 368.7Z" fill="#00111d" stroke="#00111d"></path><path d="M509 427.6L569 409.7L565 396.6Z" fill="#001220" stroke="#001220"></path><path d="M565 396.6L608 319L590 323.9Z" fill="#031a2c" stroke="#031a2c"></path><path d="M649 413.7L608 319L565 396.6Z" fill="#000f19" stroke="#000f19"></path><path d="M590 323.9L624 283.1L560 251.3Z" fill="#00101a" stroke="#00101a"></path><path d="M334 195.3L358 234.3L349 178.4Z" fill="#00101c" stroke="#00101c"></path><path d="M427 227.3L358 234.3L397 274.1Z" fill="#00101c" stroke="#00101c"></path><path d="M569 214.3L545 253.1L560 251.3Z" fill="#00101c" stroke="#00101c"></path><path d="M569 214.3L541 204.4L545 253.1Z" fill="#00111d" stroke="#00111d"></path><path d="M506 221.3L465 158.4L482 223.3Z" fill="#003254" stroke="#003254"></path><path d="M443 481.3L459 415.7L422 396.6Z" fill="#022239" stroke="#022239"></path><path d="M459 415.7L470 482.4L509 427.6Z" fill="#012a46" stroke="#012a46"></path><path d="M509 427.6L555 460.6L569 409.7Z" fill="#00111f" stroke="#00111f"></path><path d="M356 468.4L443 481.3L422 396.6Z" fill="#00101c" stroke="#00101c"></path><path d="M323 390.7L384 393.7L362 347.9Z" fill="#001220" stroke="#001220"></path><path d="M384 393.7L356 468.4L422 396.6Z" fill="#00111f" stroke="#00111f"></path><path d="M323 390.7L362 347.9L302 354.7Z" fill="#00101a" stroke="#00101a"></path><path d="M358 234.3L340 243.1L397 274.1Z" fill="#001220" stroke="#001220"></path><path d="M302 354.7L362 347.9L354 335.9Z" fill="#00111f" stroke="#00111f"></path><path d="M470 482.4L501 483.3L509 427.6Z" fill="#012a46" stroke="#012a46"></path><path d="M501 483.3L555 460.6L509 427.6Z" fill="#003254" stroke="#003254"></path><path d="M569 409.7L625 432.6L565 396.6Z" fill="#003254" stroke="#003254"></path><path d="M580 205.4L569 214.3L616 235.3Z" fill="#00101c" stroke="#00101c"></path><path d="M294 315.9L302 354.7L354 335.9Z" fill="#031a2c" stroke="#031a2c"></path><path d="M662 303L624 283.1L608 319Z" fill="#031a2c" stroke="#031a2c"></path><path d="M608 319L624 283.1L590 323.9Z" fill="#012a46" stroke="#012a46"></path><path d="M340 243.1L297 309L354 335.9Z" fill="#003254" stroke="#003254"></path><path d="M297 309L294 315.9L354 335.9Z" fill="#001220" stroke="#001220"></path><path d="M616 235.3L569 214.3L560 251.3Z" fill="#022239" stroke="#022239"></path><path d="M569 214.3L580 205.4L541 204.4Z" fill="#00101c" stroke="#00101c"></path><path d="M523 158.6L465 158.4L506 221.3Z" fill="#022239" stroke="#022239"></path><path d="M459 207.4L440 142.4L427 227.3Z" fill="#022239" stroke="#022239"></path><path d="M334 195.3L309 225.1L340 243.1Z" fill="#00101a" stroke="#00101a"></path><path d="M523 158.6L506 221.3L541 204.4Z" fill="#012a46" stroke="#012a46"></path><path d="M320 434.6L356 468.4L346 427.6Z" fill="#00101c" stroke="#00101c"></path><path d="M346 427.6L356 468.4L384 393.7Z" fill="#003254" stroke="#003254"></path><path d="M320 434.6L346 427.6L323 390.7Z" fill="#00111f" stroke="#00111f"></path><path d="M356 468.4L411 498.4L443 481.3Z" fill="#001220" stroke="#001220"></path><path d="M443 481.3L422 511.3L470 482.4Z" fill="#000f19" stroke="#000f19"></path><path d="M495 567.1L537 510.4L501 483.3Z" fill="#003254" stroke="#003254"></path><path d="M305 421.6L320 434.6L323 390.7Z" fill="#00101c" stroke="#00101c"></path><path d="M624 283.1L616 235.3L560 251.3Z" fill="#012a46" stroke="#012a46"></path><path d="M255 266.1L284 316L297 309Z" fill="#003254" stroke="#003254"></path><path d="M297 309L284 316L294 315.9Z" fill="#00101c" stroke="#00101c"></path><path d="M294 315.9L284 316L302 354.7Z" fill="#003254" stroke="#003254"></path><path d="M271 400.7L305 421.6L323 390.7Z" fill="#003a62" stroke="#003a62"></path><path d="M271 400.7L323 390.7L302 354.7Z" fill="#012a46" stroke="#012a46"></path><path d="M320 434.6L327 477.3L356 468.4Z" fill="#00111d" stroke="#00111d"></path><path d="M422 511.3L422 510.4L411 498.4Z" fill="#003254" stroke="#003254"></path><path d="M411 498.4L422 510.4L443 481.3Z" fill="#003254" stroke="#003254"></path><path d="M580 205.4L523 158.6L541 204.4Z" fill="#00111d" stroke="#00111d"></path><path d="M392 525.1L422 511.3L411 498.4Z" fill="#00111f" stroke="#00111f"></path><path d="M422 510.4L422 511.3L443 481.3Z" fill="#003254" stroke="#003254"></path><path d="M537 510.4L566 490.3L555 460.6Z" fill="#031a2c" stroke="#031a2c"></path><path d="M600 468.4L625 432.6L569 409.7Z" fill="#022239" stroke="#022239"></path><path d="M537 510.4L555 460.6L501 483.3Z" fill="#00111f" stroke="#00111f"></path><path d="M334 195.3L340 243.1L358 234.3Z" fill="#012a46" stroke="#012a46"></path><path d="M340 243.1L309 225.1L297 309Z" fill="#001220" stroke="#001220"></path><path d="M349 178.4L358 234.3L427 227.3Z" fill="#001220" stroke="#001220"></path><path d="M600 468.4L569 409.7L555 460.6Z" fill="#031a2c" stroke="#031a2c"></path><path d="M523 158.6L469 142.6L465 158.4Z" fill="#022239" stroke="#022239"></path><path d="M465 158.4L440 142.4L459 207.4Z" fill="#031a2c" stroke="#031a2c"></path><path d="M469 142.6L440 142.4L465 158.4Z" fill="#00111f" stroke="#00111f"></path><path d="M440 142.4L349 178.4L427 227.3Z" fill="#00111d" stroke="#00111d"></path><path d="M566 490.3L600 468.4L555 460.6Z" fill="#001220" stroke="#001220"></path><path d="M495 567.1L501 483.3L470 482.4Z" fill="#000f19" stroke="#000f19"></path><path d="M566 490.3L592 507.4L600 468.4Z" fill="#00111d" stroke="#00111d"></path><path d="M537 510.4L565 496.3L566 490.3Z" fill="#012a46" stroke="#012a46"></path><path d="M649 413.7L662 303L608 319Z" fill="#003a62" stroke="#003a62"></path><path d="M624 283.1L667 221.1L616 235.3Z" fill="#000f19" stroke="#000f19"></path><path d="M261 451.6L327 477.3L320 434.6Z" fill="#00101c" stroke="#00101c"></path><path d="M356 468.4L392 525.1L411 498.4Z" fill="#031a2c" stroke="#031a2c"></path><path d="M661 422.7L645 418.6L625 432.6Z" fill="#00111f" stroke="#00111f"></path><path d="M625 432.6L645 418.6L565 396.6Z" fill="#003a62" stroke="#003a62"></path><path d="M645 418.6L649 413.7L565 396.6Z" fill="#000f19" stroke="#000f19"></path><path d="M327 477.3L341 495.4L356 468.4Z" fill="#022239" stroke="#022239"></path><path d="M259 391.7L271 400.7L302 354.7Z" fill="#003254" stroke="#003254"></path><path d="M305 421.6L261 451.6L320 434.6Z" fill="#003a62" stroke="#003a62"></path><path d="M341 495.4L392 525.1L356 468.4Z" fill="#000f19" stroke="#000f19"></path><path d="M422 511.3L495 567.1L470 482.4Z" fill="#00101a" stroke="#00101a"></path><path d="M461 116.6L435 127.6L440 142.4Z" fill="#00101a" stroke="#00101a"></path><path d="M440 142.4L416 121.7L349 178.4Z" fill="#001220" stroke="#001220"></path><path d="M461 116.6L440 142.4L469 142.6Z" fill="#001220" stroke="#001220"></path><path d="M703 289L672 294.1L662 303Z" fill="#012a46" stroke="#012a46"></path><path d="M662 303L672 294.1L624 283.1Z" fill="#003254" stroke="#003254"></path><path d="M361 133.4L337 163.6L349 178.4Z" fill="#00111d" stroke="#00111d"></path><path d="M349 178.4L337 163.6L334 195.3Z" fill="#031a2c" stroke="#031a2c"></path><path d="M334 195.3L276 189.3L309 225.1Z" fill="#00111d" stroke="#00111d"></path><path d="M229 336L259 391.7L302 354.7Z" fill="#031a2c" stroke="#031a2c"></path><path d="M271 400.7L261 451.6L305 421.6Z" fill="#00111d" stroke="#00111d"></path><path d="M327 477.3L290 512.3L341 495.4Z" fill="#001220" stroke="#001220"></path><path d="M229 336L302 354.7L284 316Z" fill="#003a62" stroke="#003a62"></path><path d="M523 158.6L461 116.6L469 142.6Z" fill="#003a62" stroke="#003a62"></path><path d="M435 127.6L416 121.7L440 142.4Z" fill="#012a46" stroke="#012a46"></path><path d="M461 116.6L416 121.7L435 127.6Z" fill="#003254" stroke="#003254"></path><path d="M645 418.6L661 422.7L649 413.7Z" fill="#003a62" stroke="#003a62"></path><path d="M649 413.7L704 376.9L662 303Z" fill="#022239" stroke="#022239"></path><path d="M655 476.3L661 422.7L625 432.6Z" fill="#001220" stroke="#001220"></path><path d="M644 483.4L625 432.6L600 468.4Z" fill="#00101a" stroke="#00101a"></path><path d="M537 510.4L592 507.4L565 496.3Z" fill="#003254" stroke="#003254"></path><path d="M565 496.3L592 507.4L566 490.3Z" fill="#001220" stroke="#001220"></path><path d="M610 519.1L592 507.4L564 581.1Z" fill="#00111d" stroke="#00111d"></path><path d="M276 189.3L255 266.1L309 225.1Z" fill="#012a46" stroke="#012a46"></path><path d="M309 225.1L255 266.1L297 309Z" fill="#00111f" stroke="#00111f"></path><path d="M416 121.7L361 133.4L349 178.4Z" fill="#012a46" stroke="#012a46"></path><path d="M208 249.3L249 270.1L255 266.1Z" fill="#00101c" stroke="#00101c"></path><path d="M276 189.3L334 195.3L337 163.6Z" fill="#000f19" stroke="#000f19"></path><path d="M255 266.1L249 270.1L284 316Z" fill="#012a46" stroke="#012a46"></path><path d="M735 478.3L683 404.7L661 422.7Z" fill="#003a62" stroke="#003a62"></path><path d="M661 422.7L683 404.7L649 413.7Z" fill="#003254" stroke="#003254"></path><path d="M376 88.6L388 114.7L416 121.7Z" fill="#000f19" stroke="#000f19"></path><path d="M416 121.7L388 114.7L361 133.4Z" fill="#000f19" stroke="#000f19"></path><path d="M718 255.1L667 221.1L672 294.1Z" fill="#003254" stroke="#003254"></path><path d="M672 294.1L667 221.1L624 283.1Z" fill="#00101c" stroke="#00101c"></path><path d="M616 235.3L667 221.1L580 205.4Z" fill="#00101a" stroke="#00101a"></path><path d="M580 205.4L601 136.4L523 158.6Z" fill="#003254" stroke="#003254"></path><path d="M523 158.6L479 79.9L461 116.6Z" fill="#031a2c" stroke="#031a2c"></path><path d="M610 519.1L644 483.4L600 468.4Z" fill="#00101a" stroke="#00101a"></path><path d="M249 270.1L229 336L284 316Z" fill="#00101c" stroke="#00101c"></path><path d="M235 461.4L261 451.6L209 408.6Z" fill="#00101c" stroke="#00101c"></path><path d="M259 391.7L261 451.6L271 400.7Z" fill="#031a2c" stroke="#031a2c"></path><path d="M395 600L426 572.1L392 525.1Z" fill="#022239" stroke="#022239"></path><path d="M250 173.4L276 189.3L251 166.6Z" fill="#003a62" stroke="#003a62"></path><path d="M276 189.3L337 163.6L251 166.6Z" fill="#003a62" stroke="#003a62"></path><path d="M426 572.1L495 567.1L422 511.3Z" fill="#031a2c" stroke="#031a2c"></path><path d="M592 507.4L610 519.1L600 468.4Z" fill="#003a62" stroke="#003a62"></path><path d="M564 581.1L592 507.4L537 510.4Z" fill="#001220" stroke="#001220"></path><path d="M667 221.1L601 136.4L580 205.4Z" fill="#022239" stroke="#022239"></path><path d="M644 483.4L655 476.3L625 432.6Z" fill="#00111f" stroke="#00111f"></path><path d="M660 509.3L655 476.3L644 483.4Z" fill="#003254" stroke="#003254"></path><path d="M704 376.9L703 289L662 303Z" fill="#003254" stroke="#003254"></path><path d="M346 558.1L392 525.1L341 495.4Z" fill="#022239" stroke="#022239"></path><path d="M392 525.1L426 572.1L422 511.3Z" fill="#031a2c" stroke="#031a2c"></path><path d="M727 394.6L704 376.9L683 404.7Z" fill="#00101a" stroke="#00101a"></path><path d="M683 404.7L704 376.9L649 413.7Z" fill="#00101a" stroke="#00101a"></path><path d="M261 451.6L290 512.3L327 477.3Z" fill="#012a46" stroke="#012a46"></path><path d="M537 74.7L479 79.9L523 158.6Z" fill="#00111d" stroke="#00111d"></path><path d="M461 116.6L479 79.9L416 121.7Z" fill="#003254" stroke="#003254"></path><path d="M201 312.9L210 343.9L229 336Z" fill="#022239" stroke="#022239"></path><path d="M229 336L210 343.9L259 391.7Z" fill="#00111f" stroke="#00111f"></path><path d="M201 312.9L229 336L249 270.1Z" fill="#031a2c" stroke="#031a2c"></path><path d="M290 512.3L346 558.1L341 495.4Z" fill="#000f19" stroke="#000f19"></path><path d="M456 40.9L376 88.6L416 121.7Z" fill="#012a46" stroke="#012a46"></path><path d="M388 114.7L376 88.6L361 133.4Z" fill="#00101a" stroke="#00101a"></path><path d="M209 408.6L261 451.6L259 391.7Z" fill="#003254" stroke="#003254"></path><path d="M261 501.4L279 519.1L290 512.3Z" fill="#000f19" stroke="#000f19"></path><path d="M261 501.4L290 512.3L261 451.6Z" fill="#000f19" stroke="#000f19"></path><path d="M290 512.3L285 534.3L346 558.1Z" fill="#00111d" stroke="#00111d"></path><path d="M658 519.1L660 509.3L610 519.1Z" fill="#00111d" stroke="#00111d"></path><path d="M610 519.1L660 509.3L644 483.4Z" fill="#003a62" stroke="#003a62"></path><path d="M740 473.4L727 394.6L683 404.7Z" fill="#003254" stroke="#003254"></path><path d="M208 249.3L201 312.9L249 270.1Z" fill="#00111f" stroke="#00111f"></path><path d="M206 406.7L209 408.6L259 391.7Z" fill="#022239" stroke="#022239"></path><path d="M235 461.4L261 501.4L261 451.6Z" fill="#012a46" stroke="#012a46"></path><path d="M703 289L718 255.1L672 294.1Z" fill="#003254" stroke="#003254"></path><path d="M691 149.4L621 110.7L601 136.4Z" fill="#00111f" stroke="#00111f"></path><path d="M757 292L718 255.1L703 289Z" fill="#00101a" stroke="#00101a"></path><path d="M206 406.7L259 391.7L210 343.9Z" fill="#00111d" stroke="#00111d"></path><path d="M251 166.6L337 163.6L298 97.7Z" fill="#022239" stroke="#022239"></path><path d="M223 207.4L208 249.3L255 266.1Z" fill="#00111f" stroke="#00111f"></path><path d="M601 136.4L537 74.7L523 158.6Z" fill="#00111d" stroke="#00111d"></path><path d="M479 79.9L456 40.9L416 121.7Z" fill="#031a2c" stroke="#031a2c"></path><path d="M395 600L474 600L426 572.1Z" fill="#022239" stroke="#022239"></path><path d="M426 572.1L474 600L495 567.1Z" fill="#012a46" stroke="#012a46"></path><path d="M495 567.1L564 581.1L537 510.4Z" fill="#00101a" stroke="#00101a"></path><path d="M512 600L564 581.1L495 567.1Z" fill="#012a46" stroke="#012a46"></path><path d="M140 334.9L206 406.7L210 343.9Z" fill="#000f19" stroke="#000f19"></path><path d="M209 408.6L190 432.4L235 461.4Z" fill="#003254" stroke="#003254"></path><path d="M641 600L658 519.1L610 519.1Z" fill="#012a46" stroke="#012a46"></path><path d="M735 478.3L661 422.7L655 476.3Z" fill="#012a46" stroke="#012a46"></path><path d="M223 207.4L255 266.1L276 189.3Z" fill="#00101c" stroke="#00101c"></path><path d="M710 509.4L655 476.3L660 509.3Z" fill="#000f19" stroke="#000f19"></path><path d="M704 376.9L749 317.9L703 289Z" fill="#012a46" stroke="#012a46"></path><path d="M298 97.7L337 163.6L361 133.4Z" fill="#003254" stroke="#003254"></path><path d="M250 173.4L223 207.4L276 189.3Z" fill="#00111d" stroke="#00111d"></path><path d="M279 519.1L285 534.3L290 512.3Z" fill="#00101a" stroke="#00101a"></path><path d="M255 550.1L285 534.3L279 519.1Z" fill="#003254" stroke="#003254"></path><path d="M691 149.4L601 136.4L667 221.1Z" fill="#003254" stroke="#003254"></path><path d="M601 136.4L602 88.6L537 74.7Z" fill="#00111d" stroke="#00111d"></path><path d="M220 126.6L223 207.4L250 173.4Z" fill="#012a46" stroke="#012a46"></path><path d="M621 110.7L619 108.6L601 136.4Z" fill="#012a46" stroke="#012a46"></path><path d="M474 600L512 600L495 567.1Z" fill="#00111f" stroke="#00111f"></path><path d="M179 275.1L191 326L201 312.9Z" fill="#001220" stroke="#001220"></path><path d="M201 312.9L191 326L210 343.9Z" fill="#003254" stroke="#003254"></path><path d="M669 600L667 519.1L658 519.1Z" fill="#031a2c" stroke="#031a2c"></path><path d="M658 519.1L667 519.1L660 509.3Z" fill="#00101c" stroke="#00101c"></path><path d="M223 207.4L205 237.3L208 249.3Z" fill="#022239" stroke="#022239"></path><path d="M208 249.3L179 275.1L201 312.9Z" fill="#00101c" stroke="#00101c"></path><path d="M382 600L392 525.1L346 558.1Z" fill="#031a2c" stroke="#031a2c"></path><path d="M382 600L395 600L392 525.1Z" fill="#00111d" stroke="#00111d"></path><path d="M718 255.1L711 201.3L667 221.1Z" fill="#00111d" stroke="#00111d"></path><path d="M648 102.6L602 88.6L619 108.6Z" fill="#031a2c" stroke="#031a2c"></path><path d="M648 102.6L619 108.6L621 110.7Z" fill="#012a46" stroke="#012a46"></path><path d="M619 108.6L602 88.6L601 136.4Z" fill="#00111f" stroke="#00111f"></path><path d="M334 600L382 600L346 558.1Z" fill="#031a2c" stroke="#031a2c"></path><path d="M718 255.1L714 199.3L711 201.3Z" fill="#031a2c" stroke="#031a2c"></path><path d="M711 201.3L691 149.4L667 221.1Z" fill="#031a2c" stroke="#031a2c"></path><path d="M546 23.9L523 54.7L537 74.7Z" fill="#00111d" stroke="#00111d"></path><path d="M537 74.7L523 54.7L479 79.9Z" fill="#031a2c" stroke="#031a2c"></path><path d="M333 58.7L328 82.7L376 88.6Z" fill="#00111d" stroke="#00111d"></path><path d="M376 88.6L328 82.7L361 133.4Z" fill="#003a62" stroke="#003a62"></path><path d="M727 394.6L749 317.9L704 376.9Z" fill="#031a2c" stroke="#031a2c"></path><path d="M718 255.1L748 195.4L714 199.3Z" fill="#003254" stroke="#003254"></path><path d="M512 600L565 600L564 581.1Z" fill="#00111f" stroke="#00111f"></path><path d="M564 581.1L641 600L610 519.1Z" fill="#001220" stroke="#001220"></path><path d="M328 82.7L298 97.7L361 133.4Z" fill="#00111f" stroke="#00111f"></path><path d="M251 166.6L220 126.6L250 173.4Z" fill="#00111d" stroke="#00111d"></path><path d="M565 600L569 600L564 581.1Z" fill="#00101a" stroke="#00101a"></path><path d="M205 237.3L179 275.1L208 249.3Z" fill="#003a62" stroke="#003a62"></path><path d="M163 433.6L190 432.4L206 406.7Z" fill="#00111d" stroke="#00111d"></path><path d="M141 206.4L179 275.1L205 237.3Z" fill="#00111f" stroke="#00111f"></path><path d="M708 156.4L691 149.4L711 201.3Z" fill="#022239" stroke="#022239"></path><path d="M523 54.7L456 40.9L479 79.9Z" fill="#022239" stroke="#022239"></path><path d="M163 433.6L206 406.7L150 423.7Z" fill="#003254" stroke="#003254"></path><path d="M206 406.7L190 432.4L209 408.6Z" fill="#00111f" stroke="#00111f"></path><path d="M189 476.3L255 550.1L261 501.4Z" fill="#001220" stroke="#001220"></path><path d="M261 501.4L255 550.1L279 519.1Z" fill="#001220" stroke="#001220"></path><path d="M691 149.4L648 102.6L621 110.7Z" fill="#022239" stroke="#022239"></path><path d="M602 88.6L580 51.7L537 74.7Z" fill="#003254" stroke="#003254"></path><path d="M780 315L757 292L749 317.9Z" fill="#000f19" stroke="#000f19"></path><path d="M749 317.9L757 292L703 289Z" fill="#012a46" stroke="#012a46"></path><path d="M714 199.3L708 156.4L711 201.3Z" fill="#000f19" stroke="#000f19"></path><path d="M300 600L334 600L346 558.1Z" fill="#00101a" stroke="#00101a"></path><path d="M300 600L346 558.1L285 534.3Z" fill="#012a46" stroke="#012a46"></path><path d="M333 58.7L304 80.9L328 82.7Z" fill="#000f19" stroke="#000f19"></path><path d="M328 82.7L304 80.9L298 97.7Z" fill="#00101a" stroke="#00101a"></path><path d="M298 97.7L220 126.6L251 166.6Z" fill="#003a62" stroke="#003a62"></path><path d="M223 207.4L141 206.4L205 237.3Z" fill="#003a62" stroke="#003a62"></path><path d="M756 178.3L708 156.4L714 199.3Z" fill="#001220" stroke="#001220"></path><path d="M691 149.4L684 103.7L648 102.6Z" fill="#00111d" stroke="#00111d"></path><path d="M189 476.3L261 501.4L235 461.4Z" fill="#022239" stroke="#022239"></path><path d="M709 540.1L710 509.4L667 519.1Z" fill="#00111f" stroke="#00111f"></path><path d="M667 519.1L710 509.4L660 509.3Z" fill="#012a46" stroke="#012a46"></path><path d="M792 331.9L780 315L749 317.9Z" fill="#022239" stroke="#022239"></path><path d="M616 54.9L580 51.7L602 88.6Z" fill="#000f19" stroke="#000f19"></path><path d="M523 54.7L485 0L456 40.9Z" fill="#00111f" stroke="#00111f"></path><path d="M333 27.9L333 58.7L382 5.9Z" fill="#022239" stroke="#022239"></path><path d="M710 509.4L735 478.3L655 476.3Z" fill="#00111d" stroke="#00111d"></path><path d="M754 461.6L740 473.4L787 509.3Z" fill="#003a62" stroke="#003a62"></path><path d="M735 478.3L740 473.4L683 404.7Z" fill="#031a2c" stroke="#031a2c"></path><path d="M220 600L255 561.1L175 571.1Z" fill="#003a62" stroke="#003a62"></path><path d="M255 550.1L255 561.1L285 534.3Z" fill="#00101a" stroke="#00101a"></path><path d="M163 433.6L189 476.3L190 432.4Z" fill="#012a46" stroke="#012a46"></path><path d="M190 432.4L189 476.3L235 461.4Z" fill="#00101c" stroke="#00101c"></path><path d="M255 561.1L300 600L285 534.3Z" fill="#00111d" stroke="#00111d"></path><path d="M799 225.1L748 195.4L718 255.1Z" fill="#00101c" stroke="#00101c"></path><path d="M637 47.9L616 54.9L648 102.6Z" fill="#003a62" stroke="#003a62"></path><path d="M648 102.6L616 54.9L602 88.6Z" fill="#022239" stroke="#022239"></path><path d="M580 51.7L546 23.9L537 74.7Z" fill="#003a62" stroke="#003a62"></path><path d="M684 103.7L691 149.4L721 111.6Z" fill="#00111d" stroke="#00111d"></path><path d="M784 398.7L749 317.9L727 394.6Z" fill="#022239" stroke="#022239"></path><path d="M757 292L785 285.1L718 255.1Z" fill="#00111f" stroke="#00111f"></path><path d="M721 111.6L691 149.4L708 156.4Z" fill="#003254" stroke="#003254"></path><path d="M743 517.3L740 473.4L735 478.3Z" fill="#012a46" stroke="#012a46"></path><path d="M740 473.4L754 461.6L727 394.6Z" fill="#031a2c" stroke="#031a2c"></path><path d="M140 334.9L210 343.9L191 326Z" fill="#000f19" stroke="#000f19"></path><path d="M558 0L546 23.9L591 0Z" fill="#003a62" stroke="#003a62"></path><path d="M382 5.9L333 58.7L376 88.6Z" fill="#031a2c" stroke="#031a2c"></path><path d="M190 125.6L220 126.6L218 72.7Z" fill="#003a62" stroke="#003a62"></path><path d="M218 72.7L220 126.6L298 97.7Z" fill="#00111d" stroke="#00111d"></path><path d="M569 600L641 600L564 581.1Z" fill="#031a2c" stroke="#031a2c"></path><path d="M710 509.4L743 517.3L735 478.3Z" fill="#00111d" stroke="#00111d"></path><path d="M669 600L709 540.1L667 519.1Z" fill="#000f19" stroke="#000f19"></path><path d="M558 0L536 16.9L546 23.9Z" fill="#00111f" stroke="#00111f"></path><path d="M546 23.9L536 16.9L523 54.7Z" fill="#012a46" stroke="#012a46"></path><path d="M780 315L785 285.1L757 292Z" fill="#003a62" stroke="#003a62"></path><path d="M125 335.9L140 334.9L117 301Z" fill="#000f19" stroke="#000f19"></path><path d="M179 275.1L140 334.9L191 326Z" fill="#00101a" stroke="#00101a"></path><path d="M754 461.6L784 398.7L727 394.6Z" fill="#00101a" stroke="#00101a"></path><path d="M780 315L810 336.9L785 285.1Z" fill="#012a46" stroke="#012a46"></path><path d="M140 334.9L150 423.7L206 406.7Z" fill="#00101a" stroke="#00101a"></path><path d="M163 433.6L125 461.4L189 476.3Z" fill="#022239" stroke="#022239"></path><path d="M784 398.7L792 331.9L749 317.9Z" fill="#00101a" stroke="#00101a"></path><path d="M777 180.3L756 178.3L748 195.4Z" fill="#001220" stroke="#001220"></path><path d="M748 195.4L756 178.3L714 199.3Z" fill="#00101a" stroke="#00101a"></path><path d="M406 3.9L376 88.6L456 40.9Z" fill="#003a62" stroke="#003a62"></path><path d="M333 58.7L333 27.9L304 80.9Z" fill="#003254" stroke="#003254"></path><path d="M684 103.7L637 47.9L648 102.6Z" fill="#000f19" stroke="#000f19"></path><path d="M591 0L546 23.9L580 51.7Z" fill="#000f19" stroke="#000f19"></path><path d="M642 0L637 47.9L691 4.9Z" fill="#012a46" stroke="#012a46"></path><path d="M507 0L523 54.7L536 16.9Z" fill="#000f19" stroke="#000f19"></path><path d="M507 0L485 0L523 54.7Z" fill="#012a46" stroke="#012a46"></path><path d="M485 0L443 0L456 40.9Z" fill="#00101c" stroke="#00101c"></path><path d="M414 0L406 3.9L456 40.9Z" fill="#00111f" stroke="#00111f"></path><path d="M709 540.1L743 517.3L710 509.4Z" fill="#001220" stroke="#001220"></path><path d="M754 461.6L796 414.7L784 398.7Z" fill="#00111f" stroke="#00111f"></path><path d="M745 527.1L743 517.3L709 540.1Z" fill="#022239" stroke="#022239"></path><path d="M558 0L507 0L536 16.9Z" fill="#003254" stroke="#003254"></path><path d="M443 0L414 0L456 40.9Z" fill="#031a2c" stroke="#031a2c"></path><path d="M406 3.9L382 5.9L376 88.6Z" fill="#031a2c" stroke="#031a2c"></path><path d="M376 0L382 5.9L406 3.9Z" fill="#00101a" stroke="#00101a"></path><path d="M641 600L669 600L658 519.1Z" fill="#00111f" stroke="#00111f"></path><path d="M756 178.3L721 111.6L708 156.4Z" fill="#00101a" stroke="#00101a"></path><path d="M116 335L125 335.9L117 301Z" fill="#012a46" stroke="#012a46"></path><path d="M140 334.9L125 335.9L150 423.7Z" fill="#031a2c" stroke="#031a2c"></path><path d="M718 600L745 527.1L709 540.1Z" fill="#003a62" stroke="#003a62"></path><path d="M743 517.3L787 509.3L740 473.4Z" fill="#031a2c" stroke="#031a2c"></path><path d="M815 416.7L830 486.4L835 431.4Z" fill="#00101c" stroke="#00101c"></path><path d="M784 398.7L810 336.9L792 331.9Z" fill="#012a46" stroke="#012a46"></path><path d="M218 72.7L298 97.7L304 80.9Z" fill="#00111f" stroke="#00111f"></path><path d="M220 126.6L190 125.6L223 207.4Z" fill="#00111d" stroke="#00111d"></path><path d="M382 5.9L376 0L333 27.9Z" fill="#001220" stroke="#001220"></path><path d="M414 0L376 0L406 3.9Z" fill="#003a62" stroke="#003a62"></path><path d="M591 0L580 51.7L616 54.9Z" fill="#000f19" stroke="#000f19"></path><path d="M815 416.7L810 336.9L784 398.7Z" fill="#00101a" stroke="#00101a"></path><path d="M792 331.9L810 336.9L780 315Z" fill="#00111f" stroke="#00111f"></path><path d="M799 225.1L777 180.3L748 195.4Z" fill="#003a62" stroke="#003a62"></path><path d="M149 169.4L141 206.4L223 207.4Z" fill="#000f19" stroke="#000f19"></path><path d="M799 225.1L718 255.1L785 285.1Z" fill="#00101a" stroke="#00101a"></path><path d="M756 178.3L805 124.6L721 111.6Z" fill="#00101a" stroke="#00101a"></path><path d="M117 301L140 334.9L179 275.1Z" fill="#00111f" stroke="#00111f"></path><path d="M125 335.9L91 412.7L150 423.7Z" fill="#000f19" stroke="#000f19"></path><path d="M97 256.1L117 301L179 275.1Z" fill="#00111d" stroke="#00111d"></path><path d="M821 268L799 225.1L785 285.1Z" fill="#00111d" stroke="#00111d"></path><path d="M91 412.7L127 437.6L150 423.7Z" fill="#003254" stroke="#003254"></path><path d="M150 423.7L127 437.6L163 433.6Z" fill="#000f19" stroke="#000f19"></path><path d="M175 571.1L255 561.1L255 550.1Z" fill="#00101c" stroke="#00101c"></path><path d="M190 125.6L149 169.4L223 207.4Z" fill="#031a2c" stroke="#031a2c"></path><path d="M99 244.3L97 256.1L179 275.1Z" fill="#031a2c" stroke="#031a2c"></path><path d="M642 0L591 0L616 54.9Z" fill="#031a2c" stroke="#031a2c"></path><path d="M642 0L616 54.9L637 47.9Z" fill="#00101a" stroke="#00101a"></path><path d="M271 0L304 80.9L333 27.9Z" fill="#003a62" stroke="#003a62"></path><path d="M271 0L218 72.7L304 80.9Z" fill="#012a46" stroke="#012a46"></path><path d="M190 125.6L144 110.7L149 169.4Z" fill="#003a62" stroke="#003a62"></path><path d="M796 414.7L815 416.7L784 398.7Z" fill="#00101c" stroke="#00101c"></path><path d="M815 416.7L796 414.7L830 486.4Z" fill="#001220" stroke="#001220"></path><path d="M376 0L322 0L333 27.9Z" fill="#00101a" stroke="#00101a"></path><path d="M835 263L821 268L810 336.9Z" fill="#00101a" stroke="#00101a"></path><path d="M810 336.9L821 268L785 285.1Z" fill="#022239" stroke="#022239"></path><path d="M799 225.1L801 183.4L777 180.3Z" fill="#003a62" stroke="#003a62"></path><path d="M155 522.1L255 550.1L189 476.3Z" fill="#00101a" stroke="#00101a"></path><path d="M255 561.1L220 600L300 600Z" fill="#003254" stroke="#003254"></path><path d="M125 461.4L155 522.1L189 476.3Z" fill="#001220" stroke="#001220"></path><path d="M91 412.7L125 461.4L127 437.6Z" fill="#00101c" stroke="#00101c"></path><path d="M127 437.6L125 461.4L163 433.6Z" fill="#00101a" stroke="#00101a"></path><path d="M864 198.4L801 183.4L799 225.1Z" fill="#012a46" stroke="#012a46"></path><path d="M793 91.6L746 76.7L721 111.6Z" fill="#000f19" stroke="#000f19"></path><path d="M818 566.1L787 509.3L745 527.1Z" fill="#00111d" stroke="#00111d"></path><path d="M745 527.1L787 509.3L743 517.3Z" fill="#00101a" stroke="#00101a"></path><path d="M669 600L718 600L709 540.1Z" fill="#003254" stroke="#003254"></path><path d="M125 461.4L146 523.3L155 522.1Z" fill="#003254" stroke="#003254"></path><path d="M155 522.1L175 571.1L255 550.1Z" fill="#00111d" stroke="#00111d"></path><path d="M99 244.3L179 275.1L141 206.4Z" fill="#000f19" stroke="#000f19"></path><path d="M59 283.1L74 366.7L116 335Z" fill="#012a46" stroke="#012a46"></path><path d="M116 335L91 412.7L125 335.9Z" fill="#00111d" stroke="#00111d"></path><path d="M141 525.3L175 571.1L155 522.1Z" fill="#022239" stroke="#022239"></path><path d="M111 155.4L114 197.3L149 169.4Z" fill="#00101c" stroke="#00101c"></path><path d="M149 169.4L114 197.3L141 206.4Z" fill="#000f19" stroke="#000f19"></path><path d="M114 197.3L99 244.3L141 206.4Z" fill="#031a2c" stroke="#031a2c"></path><path d="M125 461.4L141 525.3L146 523.3Z" fill="#00111d" stroke="#00111d"></path><path d="M146 523.3L141 525.3L155 522.1Z" fill="#00101c" stroke="#00101c"></path><path d="M746 76.7L684 103.7L721 111.6Z" fill="#000f19" stroke="#000f19"></path><path d="M691 4.9L637 47.9L684 103.7Z" fill="#00111f" stroke="#00111f"></path><path d="M900 341.9L835 263L810 336.9Z" fill="#003254" stroke="#003254"></path><path d="M821 268L835 263L799 225.1Z" fill="#001220" stroke="#001220"></path><path d="M805 124.6L756 178.3L777 180.3Z" fill="#00101c" stroke="#00101c"></path><path d="M74 366.7L91 412.7L116 335Z" fill="#001220" stroke="#001220"></path><path d="M62 501.4L99 546.3L141 525.3Z" fill="#001220" stroke="#001220"></path><path d="M830 486.4L796 414.7L754 461.6Z" fill="#00111f" stroke="#00111f"></path><path d="M815 416.7L873 369.9L810 336.9Z" fill="#00101c" stroke="#00101c"></path><path d="M322 0L271 0L333 27.9Z" fill="#003a62" stroke="#003a62"></path><path d="M218 72.7L178 69.9L190 125.6Z" fill="#00101a" stroke="#00101a"></path><path d="M271 0L204 46.9L218 72.7Z" fill="#001220" stroke="#001220"></path><path d="M98 600L186 600L175 571.1Z" fill="#00101a" stroke="#00101a"></path><path d="M175 571.1L186 600L220 600Z" fill="#00111d" stroke="#00111d"></path><path d="M204 46.9L178 69.9L218 72.7Z" fill="#00101a" stroke="#00101a"></path><path d="M178 69.9L144 110.7L190 125.6Z" fill="#003a62" stroke="#003a62"></path><path d="M843 441.6L841 437.6L835 431.4Z" fill="#000f19" stroke="#000f19"></path><path d="M835 431.4L873 369.9L815 416.7Z" fill="#003254" stroke="#003254"></path><path d="M59 283.1L116 335L117 301Z" fill="#012a46" stroke="#012a46"></path><path d="M71 271L117 301L97 256.1Z" fill="#003254" stroke="#003254"></path><path d="M117 94.7L128 127.6L144 110.7Z" fill="#022239" stroke="#022239"></path><path d="M144 110.7L128 127.6L149 169.4Z" fill="#003a62" stroke="#003a62"></path><path d="M39 239.1L71 271L99 244.3Z" fill="#00111d" stroke="#00111d"></path><path d="M830 486.4L754 461.6L787 509.3Z" fill="#000f19" stroke="#000f19"></path><path d="M830 486.4L843 441.6L835 431.4Z" fill="#031a2c" stroke="#031a2c"></path><path d="M900 406.7L873 369.9L835 431.4Z" fill="#022239" stroke="#022239"></path><path d="M128 127.6L111 155.4L149 169.4Z" fill="#031a2c" stroke="#031a2c"></path><path d="M99 244.3L71 271L97 256.1Z" fill="#00111d" stroke="#00111d"></path><path d="M848 524.3L830 486.4L787 509.3Z" fill="#00111d" stroke="#00111d"></path><path d="M76 202.4L99 244.3L114 197.3Z" fill="#00101c" stroke="#00101c"></path><path d="M746 76.7L691 4.9L684 103.7Z" fill="#022239" stroke="#022239"></path><path d="M822 114.6L805 124.6L801 183.4Z" fill="#00101a" stroke="#00101a"></path><path d="M801 183.4L805 124.6L777 180.3Z" fill="#031a2c" stroke="#031a2c"></path><path d="M746 76.7L711 0L691 4.9Z" fill="#00111f" stroke="#00111f"></path><path d="M805 124.6L793 91.6L721 111.6Z" fill="#00101c" stroke="#00101c"></path><path d="M793 91.6L765 56.9L746 76.7Z" fill="#00111d" stroke="#00111d"></path><path d="M39 239.1L59 283.1L71 271Z" fill="#001220" stroke="#001220"></path><path d="M71 271L59 283.1L117 301Z" fill="#031a2c" stroke="#031a2c"></path><path d="M0 215.3L76 202.4L0 135.4Z" fill="#000f19" stroke="#000f19"></path><path d="M111 155.4L76 202.4L114 197.3Z" fill="#00101c" stroke="#00101c"></path><path d="M776 52.7L759 46.7L765 56.9Z" fill="#000f19" stroke="#000f19"></path><path d="M765 56.9L759 46.7L746 76.7Z" fill="#001220" stroke="#001220"></path><path d="M900 341.9L873 369.9L900 406.7Z" fill="#00101c" stroke="#00101c"></path><path d="M900 406.7L835 431.4L841 437.6Z" fill="#00101c" stroke="#00101c"></path><path d="M864 198.4L822 114.6L801 183.4Z" fill="#00101c" stroke="#00101c"></path><path d="M759 46.7L711 0L746 76.7Z" fill="#001220" stroke="#001220"></path><path d="M691 4.9L711 0L642 0Z" fill="#022239" stroke="#022239"></path><path d="M41 360.9L60 433.4L74 366.7Z" fill="#001220" stroke="#001220"></path><path d="M74 366.7L60 433.4L91 412.7Z" fill="#00101c" stroke="#00101c"></path><path d="M91 412.7L60 433.4L125 461.4Z" fill="#031a2c" stroke="#031a2c"></path><path d="M141 525.3L99 546.3L175 571.1Z" fill="#00111f" stroke="#00111f"></path><path d="M168 0L141 54.9L178 69.9Z" fill="#000f19" stroke="#000f19"></path><path d="M141 54.9L117 94.7L144 110.7Z" fill="#001220" stroke="#001220"></path><path d="M128 127.6L117 94.7L111 155.4Z" fill="#003a62" stroke="#003a62"></path><path d="M271 0L210 0L204 46.9Z" fill="#001220" stroke="#001220"></path><path d="M793 91.6L776 52.7L765 56.9Z" fill="#003a62" stroke="#003a62"></path><path d="M759 46.7L732 0L711 0Z" fill="#000f19" stroke="#000f19"></path><path d="M805 124.6L822 114.6L793 91.6Z" fill="#012a46" stroke="#012a46"></path><path d="M793 91.6L815 72.9L776 52.7Z" fill="#031a2c" stroke="#031a2c"></path><path d="M864 198.4L799 225.1L869 212.3Z" fill="#001220" stroke="#001220"></path><path d="M900 280L876 245.1L835 263Z" fill="#003a62" stroke="#003a62"></path><path d="M115 91.6L117 94.7L141 54.9Z" fill="#003254" stroke="#003254"></path><path d="M869 212.3L799 225.1L835 263Z" fill="#022239" stroke="#022239"></path><path d="M876 245.1L869 212.3L835 263Z" fill="#012a46" stroke="#012a46"></path><path d="M62 501.4L141 525.3L125 461.4Z" fill="#00111d" stroke="#00111d"></path><path d="M804 600L818 566.1L745 527.1Z" fill="#003a62" stroke="#003a62"></path><path d="M900 491.4L900 450.6L843 441.6Z" fill="#000f19" stroke="#000f19"></path><path d="M141 54.9L144 110.7L178 69.9Z" fill="#003254" stroke="#003254"></path><path d="M117 94.7L32 106.6L111 155.4Z" fill="#00111f" stroke="#00111f"></path><path d="M59 283.1L41 360.9L74 366.7Z" fill="#00101a" stroke="#00101a"></path><path d="M0 339L41 360.9L0 314.9Z" fill="#00101a" stroke="#00101a"></path><path d="M168 0L178 69.9L204 46.9Z" fill="#003254" stroke="#003254"></path><path d="M775 22.9L732 0L759 46.7Z" fill="#012a46" stroke="#012a46"></path><path d="M818 566.1L848 524.3L787 509.3Z" fill="#031a2c" stroke="#031a2c"></path><path d="M718 600L804 600L745 527.1Z" fill="#00101a" stroke="#00101a"></path><path d="M818 566.1L871 527.1L848 524.3Z" fill="#00111d" stroke="#00111d"></path><path d="M60 433.4L48 455.6L125 461.4Z" fill="#003a62" stroke="#003a62"></path><path d="M0 400.7L48 455.6L60 433.4Z" fill="#00111f" stroke="#00111f"></path><path d="M29 247.3L39 239.1L0 215.3Z" fill="#012a46" stroke="#012a46"></path><path d="M76 202.4L39 239.1L99 244.3Z" fill="#031a2c" stroke="#031a2c"></path><path d="M900 406.7L841 437.6L843 441.6Z" fill="#001220" stroke="#001220"></path><path d="M873 369.9L900 341.9L810 336.9Z" fill="#00101c" stroke="#00101c"></path><path d="M876 245.1L900 242.1L869 212.3Z" fill="#00101c" stroke="#00101c"></path><path d="M820 63.7L815 72.9L822 114.6Z" fill="#022239" stroke="#022239"></path><path d="M822 114.6L815 72.9L793 91.6Z" fill="#003254" stroke="#003254"></path><path d="M776 52.7L775 22.9L759 46.7Z" fill="#003a62" stroke="#003a62"></path><path d="M48 455.6L62 501.4L125 461.4Z" fill="#031a2c" stroke="#031a2c"></path><path d="M820 63.7L775 22.9L776 52.7Z" fill="#00111d" stroke="#00111d"></path><path d="M900 341.9L900 280L835 263Z" fill="#003254" stroke="#003254"></path><path d="M869 212.3L900 199.3L864 198.4Z" fill="#00111d" stroke="#00111d"></path><path d="M900 91.6L820 63.7L822 114.6Z" fill="#00111f" stroke="#00111f"></path><path d="M900 450.6L900 406.7L843 441.6Z" fill="#00111f" stroke="#00111f"></path><path d="M0 256.1L29 247.3L0 215.3Z" fill="#012a46" stroke="#012a46"></path><path d="M39 239.1L29 247.3L59 283.1Z" fill="#012a46" stroke="#012a46"></path><path d="M41 360.9L0 400.7L60 433.4Z" fill="#00101c" stroke="#00101c"></path><path d="M72 548.3L78 552.1L99 546.3Z" fill="#00111d" stroke="#00111d"></path><path d="M99 546.3L98 600L175 571.1Z" fill="#00101c" stroke="#00101c"></path><path d="M900 280L900 242.1L876 245.1Z" fill="#003254" stroke="#003254"></path><path d="M210 0L168 0L204 46.9Z" fill="#003a62" stroke="#003a62"></path><path d="M141 54.9L107 54.7L115 91.6Z" fill="#00111f" stroke="#00111f"></path><path d="M900 148.4L822 114.6L864 198.4Z" fill="#00111f" stroke="#00111f"></path><path d="M815 72.9L820 63.7L776 52.7Z" fill="#00111d" stroke="#00111d"></path><path d="M59 600L72 548.3L18 572.1Z" fill="#000f19" stroke="#000f19"></path><path d="M62 501.4L72 548.3L99 546.3Z" fill="#001220" stroke="#001220"></path><path d="M840 600L871 527.1L818 566.1Z" fill="#022239" stroke="#022239"></path><path d="M848 524.3L871 527.1L830 486.4Z" fill="#00111d" stroke="#00111d"></path><path d="M900 491.4L843 441.6L830 486.4Z" fill="#012a46" stroke="#012a46"></path><path d="M100 0L107 54.7L141 54.9Z" fill="#003a62" stroke="#003a62"></path><path d="M32 106.6L76 202.4L111 155.4Z" fill="#003254" stroke="#003254"></path><path d="M86 600L98 600L78 552.1Z" fill="#00101a" stroke="#00101a"></path><path d="M78 552.1L98 600L99 546.3Z" fill="#00111f" stroke="#00111f"></path><path d="M900 242.1L900 199.3L869 212.3Z" fill="#00111f" stroke="#00111f"></path><path d="M804 600L840 600L818 566.1Z" fill="#003a62" stroke="#003a62"></path><path d="M59 600L86 600L78 552.1Z" fill="#012a46" stroke="#012a46"></path><path d="M900 497.3L900 491.4L871 527.1Z" fill="#003a62" stroke="#003a62"></path><path d="M871 527.1L900 491.4L830 486.4Z" fill="#001220" stroke="#001220"></path><path d="M0 314.9L41 360.9L59 283.1Z" fill="#00111f" stroke="#00111f"></path><path d="M48 455.6L0 480.4L62 501.4Z" fill="#003a62" stroke="#003a62"></path><path d="M72 548.3L59 600L78 552.1Z" fill="#003254" stroke="#003254"></path><path d="M0 256.1L59 283.1L29 247.3Z" fill="#031a2c" stroke="#031a2c"></path><path d="M0 256.1L0 314.9L59 283.1Z" fill="#001220" stroke="#001220"></path><path d="M900 563.1L900 497.3L871 527.1Z" fill="#003254" stroke="#003254"></path><path d="M0 339L0 390.6L41 360.9Z" fill="#003a62" stroke="#003a62"></path><path d="M0 390.6L0 400.7L41 360.9Z" fill="#000f19" stroke="#000f19"></path><path d="M0 215.3L39 239.1L76 202.4Z" fill="#001220" stroke="#001220"></path><path d="M900 199.3L900 148.4L864 198.4Z" fill="#031a2c" stroke="#031a2c"></path><path d="M32 106.6L117 94.7L115 91.6Z" fill="#003254" stroke="#003254"></path><path d="M18 572.1L72 548.3L0 552.3Z" fill="#022239" stroke="#022239"></path><path d="M0 400.7L0 480.4L48 455.6Z" fill="#00101c" stroke="#00101c"></path><path d="M30 95.7L115 91.6L107 54.7Z" fill="#00111f" stroke="#00111f"></path><path d="M30 95.7L32 106.6L115 91.6Z" fill="#00101a" stroke="#00101a"></path><path d="M820 63.7L824 0L775 22.9Z" fill="#00111d" stroke="#00111d"></path><path d="M775 22.9L824 0L732 0Z" fill="#003254" stroke="#003254"></path><path d="M835 0L824 0L820 63.7Z" fill="#000f19" stroke="#000f19"></path><path d="M840 600L877 600L871 527.1Z" fill="#00111d" stroke="#00111d"></path><path d="M168 0L100 0L141 54.9Z" fill="#000f19" stroke="#000f19"></path><path d="M877 600L900 563.1L871 527.1Z" fill="#00101a" stroke="#00101a"></path><path d="M62 34.9L30 95.7L107 54.7Z" fill="#022239" stroke="#022239"></path><path d="M32 106.6L0 135.4L76 202.4Z" fill="#031a2c" stroke="#031a2c"></path><path d="M100 0L95 0L107 54.7Z" fill="#031a2c" stroke="#031a2c"></path><path d="M900 148.4L900 91.6L822 114.6Z" fill="#003254" stroke="#003254"></path><path d="M900 37.9L835 0L820 63.7Z" fill="#003254" stroke="#003254"></path><path d="M95 0L62 34.9L107 54.7Z" fill="#00101a" stroke="#00101a"></path><path d="M0 116.6L32 106.6L0 107.7Z" fill="#00101a" stroke="#00101a"></path><path d="M0 116.6L0 135.4L32 106.6Z" fill="#022239" stroke="#022239"></path><path d="M900 91.6L900 77.7L820 63.7Z" fill="#031a2c" stroke="#031a2c"></path><path d="M0 552.3L72 548.3L62 501.4Z" fill="#022239" stroke="#022239"></path><path d="M877 600L900 600L900 563.1Z" fill="#00111f" stroke="#00111f"></path><path d="M0 107.7L32 106.6L30 95.7Z" fill="#031a2c" stroke="#031a2c"></path><path d="M0 480.4L0 552.3L62 501.4Z" fill="#00111d" stroke="#00111d"></path><path d="M0 19.9L0 107.7L30 95.7Z" fill="#00111d" stroke="#00111d"></path><path d="M0 552.3L0 576.1L18 572.1Z" fill="#003a62" stroke="#003a62"></path><path d="M18 572.1L0 600L59 600Z" fill="#00101c" stroke="#00101c"></path><path d="M900 77.7L900 37.9L820 63.7Z" fill="#00111d" stroke="#00111d"></path><path d="M95 0L51 0L62 34.9Z" fill="#003a62" stroke="#003a62"></path><path d="M62 34.9L0 19.9L30 95.7Z" fill="#003a62" stroke="#003a62"></path><path d="M0 576.1L0 600L18 572.1Z" fill="#003254" stroke="#003254"></path><path d="M900 37.9L900 0L835 0Z" fill="#031a2c" stroke="#031a2c"></path><path d="M51 0L21 3.9L62 34.9Z" fill="#031a2c" stroke="#031a2c"></path><path d="M21 3.9L0 19.9L62 34.9Z" fill="#00111f" stroke="#00111f"></path><path d="M51 0L0 0L21 3.9Z" fill="#00111d" stroke="#00111d"></path><path d="M21 3.9L0 0L0 19.9Z" fill="#031a2c" stroke="#031a2c"></path></g></svg>